<mxfile host="app.diagrams.net" modified="2023-10-05T19:45:34.529Z" agent="Mozilla/5.0 (Windows NT 10.0; Win64; x64; rv:109.0) Gecko/20100101 Firefox/118.0" etag="PHp98NIjykasErcp-aUt" version="22.0.3" type="device">
  <diagram name="Seite-1" id="jbap0OwFum39keYs35id">
    <mxGraphModel dx="1050" dy="566" grid="1" gridSize="10" guides="1" tooltips="1" connect="1" arrows="1" fold="1" page="1" pageScale="1" pageWidth="827" pageHeight="1169" math="0" shadow="0">
      <root>
        <mxCell id="0" />
        <mxCell id="1" parent="0" />
        <mxCell id="hnbenGjOQKwxoKM0iheE-1" value="&lt;div style=&quot;font-size: 18px;&quot;&gt;Management&lt;/div&gt;" style="rounded=1;whiteSpace=wrap;html=1;shadow=1;labelBackgroundColor=none;strokeColor=none;strokeWidth=3;fillColor=#F08705;fontFamily=Helvetica;fontSize=18;fontColor=#FFFFFF;align=center;spacing=5;arcSize=7;perimeterSpacing=2;" vertex="1" parent="1">
          <mxGeometry x="555" y="40" width="130" height="40" as="geometry" />
        </mxCell>
        <mxCell id="hnbenGjOQKwxoKM0iheE-2" value="Entwickler" style="rounded=1;whiteSpace=wrap;html=1;shadow=1;labelBackgroundColor=none;strokeColor=none;strokeWidth=3;fillColor=#F08705;fontFamily=Helvetica;fontSize=18;fontColor=#FFFFFF;align=center;spacing=5;arcSize=7;perimeterSpacing=2;" vertex="1" parent="1">
          <mxGeometry x="425" y="60" width="110" height="40" as="geometry" />
        </mxCell>
        <mxCell id="hnbenGjOQKwxoKM0iheE-3" value="Kunden" style="rounded=1;whiteSpace=wrap;html=1;shadow=1;labelBackgroundColor=none;strokeColor=none;strokeWidth=3;fillColor=#F08705;fontFamily=Helvetica;fontSize=18;fontColor=#FFFFFF;align=center;spacing=5;arcSize=7;perimeterSpacing=2;" vertex="1" parent="1">
          <mxGeometry x="365" y="120" width="105" height="40" as="geometry" />
        </mxCell>
        <mxCell id="hnbenGjOQKwxoKM0iheE-4" value="Tester" style="rounded=1;whiteSpace=wrap;html=1;shadow=1;labelBackgroundColor=none;strokeColor=none;strokeWidth=3;fillColor=#F08705;fontFamily=Helvetica;fontSize=18;fontColor=#FFFFFF;align=center;spacing=5;arcSize=7;perimeterSpacing=2;" vertex="1" parent="1">
          <mxGeometry x="695" y="90" width="100" height="40" as="geometry" />
        </mxCell>
        <mxCell id="hnbenGjOQKwxoKM0iheE-5" value="&lt;div style=&quot;font-size: 18px;&quot;&gt;...&lt;/div&gt;" style="rounded=1;whiteSpace=wrap;html=1;shadow=1;labelBackgroundColor=none;strokeColor=none;strokeWidth=3;fillColor=#F08705;fontFamily=Helvetica;fontSize=18;fontColor=#FFFFFF;align=center;spacing=5;arcSize=7;perimeterSpacing=2;" vertex="1" parent="1">
          <mxGeometry x="725" y="150" width="80" height="40" as="geometry" />
        </mxCell>
        <mxCell id="hnbenGjOQKwxoKM0iheE-6" value="Zielgruppe" style="rounded=1;whiteSpace=wrap;html=1;shadow=1;labelBackgroundColor=none;strokeColor=none;strokeWidth=3;fillColor=#c87004;fontFamily=Helvetica;fontSize=26;fontColor=#FFFFFF;align=center;spacing=5;fontStyle=0;arcSize=7;perimeterSpacing=2;" vertex="1" parent="1">
          <mxGeometry x="500" y="180" width="170" height="60" as="geometry" />
        </mxCell>
        <mxCell id="hnbenGjOQKwxoKM0iheE-7" value="" style="endArrow=none;html=1;shadow=0;sketch=0;strokeColor=#CC6600;strokeWidth=3;fontSize=26;" edge="1" parent="1" source="hnbenGjOQKwxoKM0iheE-6" target="hnbenGjOQKwxoKM0iheE-3">
          <mxGeometry width="50" height="50" relative="1" as="geometry">
            <mxPoint x="380" y="-80" as="sourcePoint" />
            <mxPoint x="420" y="-20" as="targetPoint" />
          </mxGeometry>
        </mxCell>
        <mxCell id="hnbenGjOQKwxoKM0iheE-8" value="" style="endArrow=none;html=1;shadow=0;sketch=0;strokeColor=#CC6600;strokeWidth=3;fontSize=26;" edge="1" parent="1" source="hnbenGjOQKwxoKM0iheE-6" target="hnbenGjOQKwxoKM0iheE-2">
          <mxGeometry width="50" height="50" relative="1" as="geometry">
            <mxPoint x="456" y="98" as="sourcePoint" />
            <mxPoint x="608" y="-90" as="targetPoint" />
          </mxGeometry>
        </mxCell>
        <mxCell id="hnbenGjOQKwxoKM0iheE-9" value="" style="endArrow=none;html=1;shadow=0;sketch=0;strokeColor=#CC6600;strokeWidth=3;fontSize=26;" edge="1" parent="1" source="hnbenGjOQKwxoKM0iheE-6" target="hnbenGjOQKwxoKM0iheE-1">
          <mxGeometry width="50" height="50" relative="1" as="geometry">
            <mxPoint x="466" y="108" as="sourcePoint" />
            <mxPoint x="618" y="-80" as="targetPoint" />
          </mxGeometry>
        </mxCell>
        <mxCell id="hnbenGjOQKwxoKM0iheE-10" value="" style="endArrow=none;html=1;shadow=0;sketch=0;strokeColor=#CC6600;strokeWidth=3;fontSize=26;" edge="1" parent="1" source="hnbenGjOQKwxoKM0iheE-6" target="hnbenGjOQKwxoKM0iheE-4">
          <mxGeometry width="50" height="50" relative="1" as="geometry">
            <mxPoint x="476" y="118" as="sourcePoint" />
            <mxPoint x="628" y="-70" as="targetPoint" />
          </mxGeometry>
        </mxCell>
        <mxCell id="hnbenGjOQKwxoKM0iheE-11" value="" style="endArrow=none;html=1;shadow=0;sketch=0;strokeColor=#CC6600;strokeWidth=3;fontSize=26;" edge="1" parent="1" source="hnbenGjOQKwxoKM0iheE-6" target="hnbenGjOQKwxoKM0iheE-5">
          <mxGeometry width="50" height="50" relative="1" as="geometry">
            <mxPoint x="486" y="128" as="sourcePoint" />
            <mxPoint x="638" y="-60" as="targetPoint" />
          </mxGeometry>
        </mxCell>
      </root>
    </mxGraphModel>
  </diagram>
</mxfile>
